<svg width="46" height="46" viewBox="0 0 46 46" fill="none" xmlns="http://www.w3.org/2000/svg">
<g filter="url(#filter0_dd_674_973)">
<g clipPath="url(#clip0_674_973)">
<rect x="3" y="2" width="40" height="40" rx="8" fill="white"/>
<rect x="3" y="2" width="40" height="40" rx="8" fill="url(#paint0_linear_674_973)"/>
<path fillRule="evenodd" clipRule="evenodd" d="M22.9997 4.54826C13.3615 4.54826 5.54826 12.3615 5.54826 21.9997C5.54826 31.6379 13.3615 39.4512 22.9997 39.4512C32.6379 39.4512 40.4512 31.6379 40.4512 21.9997C40.4512 12.3615 32.6379 4.54826 22.9997 4.54826ZM5.45117 21.9997C5.45117 12.3079 13.3079 4.45117 22.9997 4.45117C32.6915 4.45117 40.5483 12.3079 40.5483 21.9997C40.5483 31.6915 32.6915 39.5483 22.9997 39.5483C13.3079 39.5483 5.45117 31.6915 5.45117 21.9997Z" fill="#D0D5DD"/>
<path fillRule="evenodd" clipRule="evenodd" d="M23 17.0971C20.2922 17.0971 18.0971 19.2922 18.0971 22C18.0971 24.7078 20.2922 26.9029 23 26.9029C25.7078 26.9029 27.9029 24.7078 27.9029 22C27.9029 19.2922 25.7078 17.0971 23 17.0971ZM18 22C18 19.2386 20.2386 17 23 17C25.7614 17 28 19.2386 28 22C28 24.7614 25.7614 27 23 27C20.2386 27 18 24.7614 18 22Z" fill="#D0D5DD"/>
<path fillRule="evenodd" clipRule="evenodd" d="M23.0003 18.6498C21.1504 18.6498 19.6508 20.1495 19.6508 21.9993C19.6508 23.8492 21.1504 25.3489 23.0003 25.3489C24.8502 25.3489 26.3498 23.8492 26.3498 21.9993C26.3498 20.1495 24.8502 18.6498 23.0003 18.6498ZM19.5537 21.9993C19.5537 20.0958 21.0968 18.5527 23.0003 18.5527C24.9038 18.5527 26.4469 20.0958 26.4469 21.9993C26.4469 23.9028 24.9038 25.4459 23.0003 25.4459C21.0968 25.4459 19.5537 23.9028 19.5537 21.9993Z" fill="#D0D5DD"/>
<path d="M22.9517 2H23.0487V42H22.9517V2Z" fill="#D0D5DD"/>
<path d="M43 21.9512L43 22.0483L3 22.0483L3 21.9512L43 21.9512Z" fill="#D0D5DD"/>
<path d="M36.2524 2H36.3495V42H36.2524V2Z" fill="#D0D5DD"/>
<path d="M16.3008 2H16.3979V42H16.3008V2Z" fill="#D0D5DD"/>
<path d="M29.6021 2H29.6991V42H29.6021V2Z" fill="#D0D5DD"/>
<path d="M9.65039 2H9.74748V42H9.65039V2Z" fill="#D0D5DD"/>
<path d="M43 35.252L43 35.349L3 35.349L3 35.252L43 35.252Z" fill="#D0D5DD"/>
<path d="M43 15.3008L43 15.3979L3 15.3979L3 15.3008L43 15.3008Z" fill="#D0D5DD"/>
<path d="M43 28.6016L43 28.6986L3 28.6986L3 28.6016L43 28.6016Z" fill="#D0D5DD"/>
<path d="M43 8.65039L43 8.74748L3 8.74748L3 8.65039L43 8.65039Z" fill="#D0D5DD"/>
<g filter="url(#filter1_b_674_973)">
<path d="M3 22H43V29.2C43 33.6804 43 35.9206 42.1281 37.6319C41.3611 39.1372 40.1372 40.3611 38.6319 41.1281C36.9206 42 34.6804 42 30.2 42H15.8C11.3196 42 9.07937 42 7.36808 41.1281C5.86278 40.3611 4.63893 39.1372 3.87195 37.6319C3 35.9206 3 33.6804 3 29.2V22Z" fill="white" fillOpacity="0.2"/>
</g>
<g clipPath="url(#clip1_674_973)">
<path fillRule="evenodd" clipRule="evenodd" d="M16.8423 17.132C19.1138 17.132 21.1589 18.1708 22.591 19.8305L22.5158 19.933C21.7278 21.0063 21.1819 22.2415 20.9064 23.5535C20.2346 21.9875 18.801 20.8541 17.0725 20.7604C14.5292 20.593 12.3761 22.8286 12.3679 25.5511C12.3903 28.3033 11.0974 30.9218 9.00396 32.4909C9.00991 30.6791 9.02406 28.8664 9.02406 27.057L9.00098 25.5664C9.00098 20.9086 12.5117 17.1328 16.8431 17.1328" fill="#0392CE"/>
<path fillRule="evenodd" clipRule="evenodd" d="M23.3247 19.7136L26.3349 14.1059C27.607 11.7638 29.9149 10.2299 32.4239 10C31.3582 11.9688 30.2783 13.924 29.2499 15.9153L25.1091 23.6296C24.8388 22.2896 24.2884 21.0264 23.4848 19.9322L23.3247 19.7136Z" fill="#FD5409"/>
<path fillRule="evenodd" clipRule="evenodd" d="M23 20.3431C21.9477 21.7769 21.3191 23.5863 21.3169 25.5544V25.5752C21.3176 26.5156 21.4621 27.4199 21.7272 28.2641L21.731 28.2753C21.7474 28.3282 21.7645 28.3803 21.7824 28.4323C21.7943 28.4668 21.8062 28.502 21.8181 28.5364L21.8211 28.5461C22.3789 30.1216 23.3739 31.5097 24.6809 32.4893V32.4797V32.4044V32.3716V32.3195V32.2626V32.2346V32.1545V32.1497V32.0648V32.0456V31.9791V31.9366V31.8277V31.8085V31.7236V31.7188V31.6387V31.6106V31.5538V31.5017V31.4689V31.3936V31.2991V31.2846V31.2141V31.1765V31.1292V31.0684V30.9594L24.6801 30.8745V30.8513V30.7896V30.7424V30.7047V30.6342V30.6198V30.5349V30.5253V30.45V30.4172V30.3651V30.3082V30.2802V30.2001V30.1104V30.0912V30.0255V29.983V29.9406V29.8749V29.7708V29.766V29.6859V29.6578V29.601V29.5489V29.5161V29.4408V29.3462V29.3318V29.2613V29.2237V29.1764V29.1156V29.0066V28.9217V28.8985V28.8368V28.7896V28.7519V28.6814V28.667V28.5821V28.5725V28.4972V28.4644V28.4123V28.3554V28.2473V28.2425V28.1576V28.1384V28.0727V28.0302V27.9878V27.9213V27.818V27.8132V27.7331V27.705V27.5969V27.564V27.4888V27.4791V27.3093V27.2717V27.1636V27.1403V27.0554L24.7032 25.5648C24.7032 23.5927 24.0739 21.7793 23.0194 20.3431" fill="#4002A5"/>
<path fillRule="evenodd" clipRule="evenodd" d="M27.0669 21.31C27.691 20.9543 28.403 20.7533 29.1589 20.7533C31.6314 20.7533 33.6333 22.9063 33.6333 25.5656C33.6333 28.2249 31.6307 30.3779 29.1589 30.3779C27.5003 30.3779 26.0526 29.408 25.2803 27.967V28.2457L25.2989 32.4845L25.3019 32.9099C26.4406 33.6035 27.7565 33.9992 29.1589 33.9992C33.4895 33.9992 37.0002 30.2234 37.0002 25.5648C37.0002 20.9063 33.57 17.2193 29.3086 17.1328L27.0669 21.3092V21.31Z" fill="#8802B1"/>
</g>
</g>
<rect x="3.1" y="2.1" width="39.8" height="39.8" rx="7.9" stroke="#D0D5DD" strokeWidth="0.2"/>
</g>
<defs>
<filter id="filter0_dd_674_973" x="0" y="0" width="46" height="46" filterUnits="userSpaceOnUse" colorInterpolationFilters="sRGB">
<feFlood floodOpacity="0" result="BackgroundImageFix"/>
<feColorMatrix in="SourceAlpha" type="matrix" values="0 0 0 0 0 0 0 0 0 0 0 0 0 0 0 0 0 0 127 0" result="hardAlpha"/>
<feOffset dy="1"/>
<feGaussianBlur stdDeviation="1"/>
<feColorMatrix type="matrix" values="0 0 0 0 0.0627451 0 0 0 0 0.0941176 0 0 0 0 0.156863 0 0 0 0.06 0"/>
<feBlend mode="normal" in2="BackgroundImageFix" result="effect1_dropShadow_674_973"/>
<feColorMatrix in="SourceAlpha" type="matrix" values="0 0 0 0 0 0 0 0 0 0 0 0 0 0 0 0 0 0 127 0" result="hardAlpha"/>
<feOffset dy="1"/>
<feGaussianBlur stdDeviation="1.5"/>
<feColorMatrix type="matrix" values="0 0 0 0 0.0627451 0 0 0 0 0.0941176 0 0 0 0 0.156863 0 0 0 0.1 0"/>
<feBlend mode="normal" in2="effect1_dropShadow_674_973" result="effect2_dropShadow_674_973"/>
<feBlend mode="normal" in="SourceGraphic" in2="effect2_dropShadow_674_973" result="shape"/>
</filter>
<filter id="filter1_b_674_973" x="-2" y="17" width="50" height="30" filterUnits="userSpaceOnUse" colorInterpolationFilters="sRGB">
<feFlood floodOpacity="0" result="BackgroundImageFix"/>
<feGaussianBlur in="BackgroundImageFix" stdDeviation="2.5"/>
<feComposite in2="SourceAlpha" operator="in" result="effect1_backgroundBlur_674_973"/>
<feBlend mode="normal" in="SourceGraphic" in2="effect1_backgroundBlur_674_973" result="shape"/>
</filter>
<linearGradient id="paint0_linear_674_973" x1="23" y1="2" x2="23" y2="42" gradientUnits="userSpaceOnUse">
<stop stop-color="white"/>
<stop offset="1" stop-color="#D0D5DD"/>
</linearGradient>
<clipPath id="clip0_674_973">
<rect x="3" y="2" width="40" height="40" rx="8" fill="white"/>
</clipPath>
<clipPath id="clip1_674_973">
<rect width="28" height="24" fill="white" transform="translate(9 10)"/>
</clipPath>
</defs>
</svg>
